# xmcd CD database file
#
# Track frame offsets:
#	150
#	28912
#	55726
#	79299
#	93221
#	113059
#	129782
#	153616
#
# Disc length: 2275 seconds
#
# Revision: 0
# Processed by: cddbd v1.5.2PL0 Copyright (c) Steve Scherf et al.
# Submitted via: CDex 1.51
#
DISCID=5c08e108
DTITLE=Mischa Vernov (Henry Kasper, Steffen Kistner, Markus Zink) - Linear Depth
DYEAR=2012
DGENRE=Jazz
TTITLE0=Linear Depth
TTITLE1=Journey
TTITLE2=When You Say Goodbye
TTITLE3=I See Train
TTITLE4=Dark Size Life
TTITLE5=East And West
TTITLE6=Mysterious Matter
TTITLE7=Mountain Lake
EXTD=YEAR: 2012
EXTT0=
EXTT1=
EXTT2=
EXTT3=
EXTT4=
EXTT5=
EXTT6=
EXTT7=
PLAYORDER=
